ply
format ascii 1.0
element vertex 1159
property float x
property float y
property float z
property uchar red
property uchar green
property uchar blue
end_header
0.0512088 0.0301773  0.431436 0 255 0
 0.177958 0.0208066  0.457052 0 255 0
0.501739 0.102741 0.563175 0 255 0
 -0.18511 0.0516786  0.362023 0 255 0
 0.273114 0.0431174  0.431944 0 255 0
-0.0982928  0.0383893   0.368072 0 255 0
0.606025 -1.63314  5.65844 255 255 255
-0.145273 0.0590657   1.47414 255 255 255
-0.0177256  0.0114378    1.47154 255 255 255
0.588163 -1.82934  5.82667 255 255 255
0.915914 -1.42621  5.44863 255 255 255
 -0.124624 -0.0466043    1.47629 255 255 255
-0.120469 0.0116314   1.47916 255 255 255
-0.147305   -0.0463    1.4739 255 255 255
0.770523 -1.45104  5.60708 255 255 255
0.576451 -1.50414  5.51512 255 255 255
-0.278465  0.380594   1.44663 255 255 255
-0.165301 0.0407531    1.4691 255 255 255
0.288262 -1.72704  5.81776 255 255 255
0.870445 -1.62422   5.7196 255 255 255
 -0.1665 0.415781  1.48506 255 255 255
-0.121298  0.457612   1.50489 255 255 255
0.204641 0.114779  1.59336 255 255 255
 0.98616 -1.54156  5.45207 255 255 255
 -0.124127 -0.0146514    1.48118 255 255 255
-0.122445 0.0749571   1.48467 255 255 255
 -0.14757 -0.175474   1.48498 255 255 255
-0.138577  0.458496   1.49452 255 255 255
 1.14743 -1.66457  5.74661 255 255 255
0.965095 -1.39501  5.15426 255 255 255
0.327879 -1.59715  5.71376 255 255 255
0.860857  -1.5003  5.19226 255 255 255
-0.0929075  -0.100147    1.47537 255 255 255
0.548125 -1.93582  5.86071 255 255 255
-0.164536 -0.250007   1.51246 255 255 255
-0.0671626   0.219772    1.50656 255 255 255
 0.92092 -1.49234  5.37262 255 255 255
 0.26086 -1.59324    5.788 255 255 255
-0.228624  0.359841   1.47217 255 255 255
0.0705062  -0.11628   1.50034 255 255 255
-0.116779 -0.236818   1.48969 255 255 255
 1.04371 -1.46206  5.34676 255 255 255
0.920856  -1.4184  5.40884 255 255 255
-0.0581091 0.00961342    1.47578 255 255 255
 0.95413 -1.64866  5.46201 255 255 255
-0.0755487  -0.103081    1.46987 255 255 255
-0.0182325  -0.190258    1.49071 255 255 255
 -0.1654 0.408648  1.48646 255 255 255
0.862547  -1.5341  5.56635 255 255 255
0.372708 -2.08081  6.26506 255 255 255
-0.197627 -0.138556   1.48742 255 255 255
-0.207201 -0.216415   1.50376 255 255 255
0.359609 -1.73121  5.77314 255 255 255
0.362783 -1.98658  5.92033 255 255 255
0.899201 -1.70716  5.57465 255 255 255
-0.183691  0.405206   1.48139 255 255 255
0.912856 -1.65475  5.43799 255 255 255
0.572635 -1.77697  5.62694 255 255 255
  0.185628 -0.0111822    1.62142 255 255 255
0.96181 -1.7256 5.56126 255 255 255
-0.151703  0.439771   1.49592 255 255 255
1.04075 -1.6826 5.44958 255 255 255
0.607249 -1.44334   5.4969 255 255 255
0.332568 -1.47883  5.72673 255 255 255
-0.0624086  0.0402577     1.4737 255 255 255
0.408133 -1.78183   5.9107 255 255 255
0.0300904  0.145311   1.48328 255 255 255
-0.0199733 -0.0762416    1.47841 255 255 255
0.361788 -1.57909  5.68963 255 255 255
 1.00857 -1.46606  5.27706 255 255 255
 -0.061014 -0.0317014    1.47854 255 255 255
0.987524 -1.52358  5.51121 255 255 255
-0.0847252  -0.105426    1.47481 255 255 255
0.996404 -1.60936  5.51751 255 255 255
-0.0793189 -0.0944473    1.47945 255 255 255
0.885235 -1.40705  5.29318 255 255 255
0.462808 -1.63015  5.64111 255 255 255
0.926802 -1.62072  5.85819 255 255 255
0.321544 -1.76706  5.80107 255 255 255
0.853922   -1.391  5.46478 255 255 255
0.552935 -2.04568  6.10635 255 255 255
0.327493 -1.66977  5.78321 255 255 255
0.416979  -1.9515  5.84269 255 255 255
-0.00569497   -0.215167     1.49485 255 255 255
-0.253202  0.426349     1.403 255 255 255
0.873229 -1.56668  5.47604 255 255 255
-0.103321  0.476652   1.52557 255 255 255
   0.125646 -0.00434303     1.51505 255 255 255
 0.0931307 -0.0101124    1.51567 255 255 255
-0.154719  0.443502   1.48691 255 255 255
   0.106761 -0.00146168     1.53066 255 255 255
  0.125304 -0.0114711    1.55576 255 255 255
0.00627434   0.520935    1.73151 255 255 255
 0.15845 0.186364  1.57252 255 255 255
-0.105422  0.519279   1.47572 255 255 255
0.0813185  0.251772    1.5298 255 255 255
-0.104346 -0.280424   1.68231 255 255 255
-0.231179   0.30545   1.49872 255 255 255
-0.0600017   0.276277    1.56551 255 255 255
0.0644519 -0.256326   1.51666 255 255 255
 0.0176542 -0.0863959    1.48065 255 255 255
 0.0839838 -0.0536862    1.50338 255 255 255
-0.277699  0.454241   1.32137 255 255 255
-0.195957  0.475753   1.28657 255 255 255
0.0623396  0.242556   1.51907 255 255 255
0.836724 -1.87584   6.0648 255 255 255
 0.0551514 -0.0102335    1.49255 255 255 255
-0.147589 0.0157527   1.48022 255 255 255
0.226493  0.10228  1.62239 255 255 255
-2.35466 -1.91198  6.60045 255 255 255
-0.151924 0.0978216    1.5041 255 255 255
-0.194529  0.460348    1.4144 255 255 255
-0.327422  0.375419   1.41619 255 255 255
-0.302222  0.459623    1.2973 255 255 255
0.151184 0.101288  1.56715 255 255 255
1.04128 2.03764 4.85042 255 255 255
-0.355347  0.399776   1.36345 255 255 255
 -0.168191 -0.0321646    1.47058 255 255 255
-0.23866 0.426787  1.42424 255 255 255
0.854972 -1.37222  5.54722 255 255 255
  0.133112 -0.0274731    1.54933 255 255 255
0.188563 0.171367  1.60557 255 255 255
-0.166017  0.462146   1.47028 255 255 255
-0.348236   0.36702   1.40961 255 255 255
0.0460454  0.302872   1.59127 255 255 255
-2.10148 -1.89336  6.37993 255 255 255
 0.169797 0.0228686   1.59573 255 255 255
 0.170218 0.0225151   1.58907 255 255 255
-0.351215  0.346455   1.45341 255 255 255
-0.0591148   0.563748    1.50046 255 255 255
0.00924535  -0.212541    1.50091 255 255 255
-0.206955  0.450957   1.43181 255 255 255
0.119796 0.153686  1.52539 255 255 255
 0.0928058 -0.0109702    1.52063 255 255 255
-0.317767  0.392079   1.37886 255 255 255
0.146103 -0.20488  1.60054 255 255 255
-2.57156 -1.88937  6.66396 255 255 255
-0.00614006     0.53116     1.70356 255 255 255
-0.0832663  0.0424629    1.47984 255 255 255
-0.323006  0.389726   1.38804 255 255 255
-0.133232 0.0315169   1.48447 255 255 255
0.483124 -1.46117  5.54851 255 255 255
-0.130174 -0.231923   1.49728 255 255 255
-0.00304016   -0.242203     1.51441 255 255 255
0.963453  2.12411  4.79791 255 255 255
-0.15698  0.47004  1.43679 255 255 255
-0.371152  0.349537   1.45185 255 255 255
0.205764 -0.05605   1.6835 255 255 255
-0.136708    0.4455   1.50064 255 255 255
 -0.200949 -0.0533847    1.46321 255 255 255
-0.288588  0.405575     1.391 255 255 255
-0.00341485    0.522765     1.75006 255 255 255
-0.164164  0.478805   1.41004 255 255 255
-0.0207729   0.539831    1.65688 255 255 255
0.772236   1.8065  4.79436 255 255 255
-0.078022 -0.179929   1.47929 255 255 255
-0.126148  0.497161   1.42849 255 255 255
-0.311209  0.337215   1.48231 255 255 255
0.942237  1.95817  4.79894 255 255 255
-0.0118793   0.556129    1.64119 255 255 255
1.18887 1.66607 5.63755 255 255 255
0.198539 0.137503   1.6084 255 255 255
1.18894 1.62643 5.74295 255 255 255
-0.0740011   0.572004    1.47171 255 255 255
-0.327316  0.416467   1.36346 255 255 255
-0.122999  0.460214   1.51098 255 255 255
-0.0166726  -0.210032    1.49255 255 255 255
0.908908 -1.32765   5.3794 255 255 255
-0.27479 0.473595  1.28185 255 255 255
-0.238649  0.495093   1.31203 255 255 255
1.03934  1.7604 5.70789 255 255 255
-0.0206947   0.585163     1.5863 255 255 255
-0.0438126 -0.0253169    1.47413 255 255 255
-0.310607  0.388823   1.39385 255 255 255
-0.156017 -0.269199   1.53119 255 255 255
-0.0173317   0.574071    1.59608 255 255 255
-0.0200619   0.523802    1.71628 255 255 255
0.0826514 -0.115954   1.50578 255 255 255
0.615198  -2.1862  6.33207 255 255 255
-1.99922   -1.854  6.36678 255 255 255
 -2.6621 -1.95838  6.65714 255 255 255
-0.174537 0.0246408   1.46705 255 255 255
-0.347431  0.329226   1.47657 255 255 255
-0.155684  0.478515    1.3813 255 255 255
-0.344209  0.412549   1.34542 255 255 255
0.793468  1.75777  4.80548 255 255 255
-0.321669  0.444403   1.27941 255 255 255
-0.201876  0.498036   1.31007 255 255 255
-0.0490978   0.559398     1.5159 255 255 255
-0.0450972  -0.195955    1.48498 255 255 255
-0.176481  0.457643   1.44195 255 255 255
 -0.137926 0.00616857    1.47994 255 255 255
-0.249865   0.48225   1.32412 255 255 255
-0.366285  0.381747   1.36918 255 255 255
0.0139706 -0.187171    1.4893 255 255 255
0.00933552   0.533995    1.71272 255 255 255
0.171819 0.115253  1.57537 255 255 255
-0.272605  0.462737   1.30624 255 255 255
-0.100269 -0.230302   1.49211 255 255 255
-0.120846  0.442415   1.50909 255 255 255
-0.0140002   0.514607    1.75111 255 255 255
-0.336206  0.410275   1.30936 255 255 255
-0.312962  0.347298   1.47469 255 255 255
-0.337324  0.416269   1.35759 255 255 255
-0.229298  0.436971    1.3984 255 255 255
-0.321248  0.348647   1.44303 255 255 255
-0.0750347   0.549127    1.48771 255 255 255
  -0.21295 -0.0659402    1.47442 255 255 255
-0.0286855   0.576339    1.59103 255 255 255
-0.0283663   0.510746    1.72126 255 255 255
-0.118247  0.185346   1.50166 255 255 255
-0.294219  0.427359   1.37768 255 255 255
0.737955  1.68201  6.00015 255 255 255
 -0.18824 -0.243292   1.50619 255 255 255
-0.294105   0.43366    1.3194 255 255 255
-2.74737  -1.9404  6.74306 255 255 255
-0.165011   0.47666   1.43118 255 255 255
-2.15739 -1.88484  6.78243 255 255 255
-0.148703  0.517024   1.38678 255 255 255
1.05524 1.63523 5.91668 255 255 255
1.04424 1.69708 5.75918 255 255 255
  -0.150248 -0.00146012     1.49346 255 255 255
0.744279 -1.42764  5.64599 255 255 255
-0.166122 -0.250902   1.51894 255 255 255
0.782267  1.76637  4.57849 255 255 255
-0.266502  0.484776   1.29099 255 255 255
0.000497079   -0.185573     1.48843 255 255 255
-0.00282327  -0.0855914     1.48101 255 255 255
-0.128692   0.53827   1.40465 255 255 255
0.082448  0.63445  1.72016 255 255 255
0.838916  1.57312  6.01398 255 255 255
-0.326096  0.444119   1.27331 255 255 255
-0.164502  0.468923   1.40694 255 255 255
1.00076 1.96539 4.86962 255 255 255
 0.129132 0.0209861   1.59132 255 255 255
1.19145 1.45341 5.84796 255 255 255
-0.00351289   -0.147165     1.47952 255 255 255
-0.198574  0.500443   1.34293 255 255 255
0.0591669  0.631043   1.80037 255 255 255
-0.192136  0.458114   1.41722 255 255 255
0.840956  2.06517  4.78064 255 255 255
1.0922 1.5473 5.8458 255 255 255
-0.27068 0.402411  1.40762 255 255 255
0.817988  1.95729   4.8001 255 255 255
0.817661  2.09844  4.81674 255 255 255
1.22325 1.77623 6.08968 255 255 255
-0.036931  0.584282   1.50114 255 255 255
-0.0024054   0.562958    1.68169 255 255 255
  0.113674 -0.0107439    1.54951 255 255 255
0.958349  1.38653  5.95825 255 255 255
0.0633926  0.287283   1.56094 255 255 255
-0.148441  0.471849   1.47367 255 255 255
-0.256467  0.476229   1.31523 255 255 255
 -2.0989 -1.68455  6.25197 255 255 255
0.0318596   0.56819   1.76965 255 255 255
-2.15862  -1.8303  6.62296 255 255 255
-0.189296  0.502332   1.34638 255 255 255
-0.315515  0.336509    1.4656 255 255 255
-0.218491  0.437196   1.42719 255 255 255
-0.239456  0.447198   1.39305 255 255 255
-0.0672404  -0.101734    1.47567 255 255 255
0.773523  2.07225  4.75892 255 255 255
0.0612299  -0.22065   1.52383 255 255 255
0.020214 0.517911  1.75349 255 255 255
-0.295374  0.409267   1.38544 255 255 255
 -0.060754 -0.0494008    1.48506 255 255 255
-0.291801  0.392142   1.40794 255 255 255
0.868977  1.92369  4.70897 255 255 255
-2.55527 -1.90683  6.56107 255 255 255
-0.149827 -0.196836   1.49136 255 255 255
-0.158857 -0.233597   1.50007 255 255 255
-0.275105   0.46924   1.30087 255 255 255
-2.19411 -1.84518  6.47138 255 255 255
-0.0608961   0.213263    1.50104 255 255 255
0.0946252   1.53816   5.91437 255 255 255
-0.0259679   0.619582    1.53226 255 255 255
-0.0531338  -0.189629    1.47745 255 255 255
-0.349428  0.365316   1.41592 255 255 255
-2.52443  -1.9668  6.73501 255 255 255
-0.0964245  -0.197656    1.47792 255 255 255
-0.380151   0.37197   1.41332 255 255 255
-0.233664 -0.169888   1.51924 255 255 255
0.0512087  0.617096   1.77412 255 255 255
-0.195812  0.501985    1.3168 255 255 255
   0.15533 -0.0220015    1.57988 255 255 255
-2.43096 -1.82055  6.58566 255 255 255
-0.291713  0.433832   1.37228 255 255 255
  -0.12027 -0.0779655    1.48771 255 255 255
0.850581  1.92383  4.51753 255 255 255
 -0.130997 -0.0872768    1.48494 255 255 255
-0.316981  0.338751    1.4541 255 255 255
-0.187463  0.388241   1.48281 255 255 255
0.0460403 -0.129662   1.49017 255 255 255
-0.0196282  -0.144854    1.47614 255 255 255
-2.48779 -1.83949  6.62143 255 255 255
-0.19667 0.455768   1.4324 255 255 255
0.540505  1.76522  5.07132 255 255 255
0.981107  1.78096  4.67601 255 255 255
-0.275066  0.473176   1.31729 255 255 255
-0.248046  0.418116   1.41615 255 255 255
-0.139285  0.471326   1.49069 255 255 255
  0.106112 -0.0540795    1.49717 255 255 255
-0.0975981   0.120143    1.48438 255 255 255
-0.233738  0.394343   1.46441 255 255 255
0.162896 0.142854  1.56943 255 255 255
-0.287906   0.43887   1.36345 255 255 255
1.00863 1.60828 5.69556 255 255 255
-0.0640021  -0.221354    1.49025 255 255 255
-0.0752922   0.475057    1.61645 255 255 255
1.25134 1.22801 5.82432 255 255 255
-0.321181  0.417603   1.31618 255 255 255
-0.233499  0.489987   1.30493 255 255 255
-0.324266   0.41464   1.31071 255 255 255
-0.324208  0.452695   1.26329 255 255 255
-0.179084  0.391989   1.48695 255 255 255
-0.185911 -0.255284    1.5122 255 255 255
-2.52774 -1.83479  6.63102 255 255 255
-0.0155287 -0.0415351    1.47599 255 255 255
-0.0391835  -0.143696    1.47438 255 255 255
-0.217975  0.452838   1.32743 255 255 255
-0.209529  0.508693   1.32509 255 255 255
0.261254 -1.59835  5.80432 255 255 255
-0.384004  0.373243   1.40204 255 255 255
-0.0115267   0.518096    1.68397 255 255 255
-2.39227 -1.49849  6.35347 255 255 255
-0.296574  0.434659   1.36981 255 255 255
-0.251423  0.433161   1.39446 255 255 255
-0.200039  0.505525   1.31625 255 255 255
0.655498  1.64834  6.03446 255 255 255
-0.327659  0.380719   1.40772 255 255 255
-2.34055 -1.63336  6.41026 255 255 255
0.962951  1.75275  5.67312 255 255 255
-0.137479  0.482673   1.46757 255 255 255
-0.270318  0.467224    1.3169 255 255 255
-0.0355754   0.223361    1.50484 255 255 255
-0.128044  -0.18696   1.48022 255 255 255
0.169049 0.130321  1.57723 255 255 255
0.0342724 -0.235961   1.51744 255 255 255
  1.0781 -1.40688  5.21896 255 255 255
-0.387914  0.369105   1.42467 255 255 255
0.168245 0.188703  1.58621 255 255 255
-0.251479  0.484273   1.29429 255 255 255
-0.312881  0.446456    1.2862 255 255 255
-0.0224517   0.532661      1.678 255 255 255
-0.175461 -0.183111   1.48808 255 255 255
0.00874915   0.188591    1.49496 255 255 255
0.172213 0.185951  1.60004 255 255 255
0.762924  1.56729  6.25237 255 255 255
-0.211839 -0.125868   1.50289 255 255 255
1.19013 1.35509 6.16898 255 255 255
-0.0706208   0.565884    1.44975 255 255 255
0.83224 1.83914 4.56767 255 255 255
-0.268696  0.408991   1.40184 255 255 255
-0.25099 0.439024   1.3868 255 255 255
-0.251891   0.48577   1.28652 255 255 255
-0.369833  0.372969   1.40402 255 255 255
 -0.23091 -0.105044   1.50394 255 255 255
0.0147988  0.584334   1.67704 255 255 255
-0.221183 -0.111106   1.50797 255 255 255
0.93379  2.0715 4.50758 255 255 255
-0.339242  0.414826   1.33055 255 255 255
-0.110368  0.501928   1.49543 255 255 255
-2.20708 -1.93498   6.4992 255 255 255
-0.0692747  0.0713241    1.47863 255 255 255
  1.249 1.43542 6.07995 255 255 255
-0.317673   0.34578    1.4509 255 255 255
0.796314  1.83687  4.56514 255 255 255
-0.194885  0.495397   1.31825 255 255 255
-0.105288  0.267119   1.52023 255 255 255
1.12016 1.66557 5.74221 255 255 255
0.00502316   0.543731    1.68491 255 255 255
-2.68974 -1.89309   6.8043 255 255 255
0.791557  1.55113  5.96652 255 255 255
 1.11115 -1.56273  5.39241 255 255 255
0.0337968 -0.166018   1.48935 255 255 255
0.0602371  -0.20413   1.51539 255 255 255
-0.109963  0.502195   1.48107 255 255 255
0.0282885  0.626097   1.59364 255 255 255
  -0.19166 -0.0921731    1.50194 255 255 255
-0.301057  0.408615   1.38417 255 255 255
0.160985 0.126396  1.57667 255 255 255
-0.191849  0.402921   1.47598 255 255 255
-0.153455  0.470938   1.46753 255 255 255
 1.25339 -1.46524   5.7164 255 255 255
-0.0764814 -0.0176227    1.48141 255 255 255
0.000470941    0.580292     1.66646 255 255 255
-0.151819 -0.202751   1.49433 255 255 255
-0.318022  0.443521   1.30116 255 255 255
-0.363607  0.400827   1.35024 255 255 255
-0.232552  0.428977   1.42991 255 255 255
0.0240154  0.280704   1.53847 255 255 255
-1.86817 -1.98053  6.61512 255 255 255
-0.0733839   0.325842     1.5469 255 255 255
 -2.7392 -1.82418  6.71605 255 255 255
0.365744 -1.64081  5.74727 255 255 255
-0.127731  0.532514   1.37742 255 255 255
-0.0321947   0.191655    1.49005 255 255 255
-0.112081  0.532227   1.43618 255 255 255
 -2.3145 -1.54183  6.56951 255 255 255
-0.318443  0.377279   1.42626 255 255 255
0.0950409   1.55981   5.87145 255 255 255
-0.253922 -0.106753   1.52141 255 255 255
-0.17709 0.397529  1.48673 255 255 255
-0.0177526   0.135204    1.48385 255 255 255
-0.269555  0.476548   1.28861 255 255 255
-0.283828  0.436678   1.37655 255 255 255
-0.0199789   0.600596    1.52661 255 255 255
-0.0811929   0.167069    1.49147 255 255 255
1.01902 1.93355 4.60887 255 255 255
-0.244357  0.422537   1.40794 255 255 255
-0.00988736    0.557045     1.65149 255 255 255
-0.133988  0.479362   1.47452 255 255 255
-0.0881873   0.229076    1.51112 255 255 255
   -0.1021 -0.0777765    1.48141 255 255 255
-0.274558 -0.053051   1.54731 255 255 255
-0.0518573  0.0852996    1.47789 255 255 255
-0.27464 0.476354  1.29147 255 255 255
-0.394364  0.338504   1.48844 255 255 255
0.333743 -1.53098  5.70896 255 255 255
-0.0705689 -0.0384297    1.47965 255 255 255
-0.0844777  -0.125849    1.47516 255 255 255
-0.153256  0.416852    1.4959 255 255 255
0.916548  2.09032  4.78209 255 255 255
-0.0093613   0.170775    1.48305 255 255 255
 0.182836 0.0173168   1.60036 255 255 255
-0.0586158  -0.207007    1.47935 255 255 255
-0.113028 -0.188914    1.4768 255 255 255
-0.0626441   0.574936    1.44576 255 255 255
0.093026 0.254294  1.53146 255 255 255
-0.0264204   0.193419    1.49091 255 255 255
0.992789 -1.36817  5.13919 255 255 255
-0.324041  0.332363    1.4651 255 255 255
-0.290515  0.413169   1.38722 255 255 255
-0.0910029   0.539044    1.47489 255 255 255
-0.0540905   0.246397    1.51859 255 255 255
-0.0432008   0.585295    1.48158 255 255 255
-0.107674  0.510594   1.48434 255 255 255
-0.214859  0.493406   1.31781 255 255 255
-0.336336  0.379312   1.39071 255 255 255
 -0.175278 -0.0907409    1.47802 255 255 255
-0.222182  0.439423   1.40333 255 255 255
-0.0466336   0.127007    1.47875 255 255 255
-0.0314921   0.532421    1.66158 255 255 255
0.913571  1.95615  4.48139 255 255 255
-1.98947 -1.81915  6.47788 255 255 255
-0.337144  0.405817   1.36333 255 255 255
-0.0385863   0.526188    1.65221 255 255 255
-0.0133873  -0.145994    1.47501 255 255 255
-0.288826  0.425169   1.38019 255 255 255
-1.83944 -1.87154  6.23846 255 255 255
-0.245879   0.43872   1.39158 255 255 255
-0.12822 0.525865  1.38229 255 255 255
-0.194186  0.468336   1.39612 255 255 255
0.331186 -1.70256  5.73768 255 255 255
-0.252019  0.412758    1.4152 255 255 255
-0.0871152  -0.166004    1.47848 255 255 255
-0.295598  0.351449   1.46539 255 255 255
-0.210033  0.447533   1.39861 255 255 255
-0.153075 -0.207723   1.49207 255 255 255
-0.327728  0.329133   1.47305 255 255 255
-0.190183  0.398602   1.47733 255 255 255
0.0545547  0.148367   1.49193 255 255 255
-0.0319503    0.48253    1.81528 255 255 255
 0.0550176 -0.0105322    1.49204 255 255 255
0.369688 -1.42542  5.50713 255 255 255
-0.145764  0.489391   1.43959 255 255 255
-0.003032  0.514097   1.77023 255 255 255
0.423388 -1.55438  5.76096 255 255 255
-0.307396  0.390006   1.41032 255 255 255
-0.160252  0.449982   1.47663 255 255 255
-0.160368  0.450845   1.47912 255 255 255
-0.245695  0.489432   1.30285 255 255 255
-0.152379  0.479847   1.41838 255 255 255
0.0914803  0.630458   1.90856 255 255 255
-0.155002  0.443112   1.48735 255 255 255
-0.0867189 -0.0681843    1.48246 255 255 255
0.00791159   0.528657    1.78184 255 255 255
-0.309944  0.391462   1.39403 255 255 255
-0.0635272   0.530381    1.55567 255 255 255
-0.187971 -0.352668   1.63524 255 255 255
-0.0542857    1.60327    5.81374 255 255 255
0.0413038  0.555239   1.88568 255 255 255
0.194674  1.06887  5.90429 255 255 255
0.0489722  0.621286   1.77999 255 255 255
-0.0860614   0.489024    1.56939 255 255 255
0.186154  1.30203  5.86538 255 255 255
0.327879 -1.59715  5.71376 255 255 255
-0.321191   1.61314   5.98954 255 255 255
-0.0816616    1.56604    5.83357 255 255 255
-0.221931 -0.343154   1.62049 255 255 255
-0.0939683    0.53017    1.50177 255 255 255
0.131474    1.707  5.74229 255 255 255
-0.034667   1.55969   5.80804 255 255 255
-0.00388657    0.548125     1.69487 255 255 255
-0.00804673    0.991699     5.95731 255 255 255
-0.0324455   0.541698    1.64502 255 255 255
-0.0335987    1.45004    5.91066 255 255 255
-0.109405   1.55316   5.87848 255 255 255
0.0216247  0.600366   1.68189 255 255 255
-0.00275517    0.581938     1.65531 255 255 255
-0.154079 0.0304613   1.47393 255 255 255
-0.0999054   0.520696    1.49964 255 255 255
-0.116614  0.496836   1.48881 255 255 255
-0.133935   1.52099   5.84338 255 255 255
0.179006 0.116761  1.58492 255 255 255
-0.037172  0.101455   1.47443 255 255 255
-0.314717  0.376878   1.43509 255 255 255
-0.91403   1.0275  6.51435 255 255 255
0.0435881   1.59446   5.81988 255 255 255
-0.214631  0.461202   1.38906 255 255 255
-0.0606613   0.501066    1.64296 255 255 255
-0.0585256   -0.17135    1.47632 255 255 255
-0.100505  0.519014   1.48739 255 255 255
-0.0492198   0.107713     1.4764 255 255 255
-0.0765461   0.269086    1.52887 255 255 255
-0.0988377   0.517153    1.51017 255 255 255
0.105871 0.164563  1.51347 255 255 255
-0.0982436   0.120676    1.48873 255 255 255
-0.346661   1.37022   6.03852 255 255 255
0.0376742 -0.194966   1.50265 255 255 255
0.0461073  0.612766   1.77478 255 255 255
-0.0694766  -0.111481    1.47579 255 255 255
-0.0642796   0.332903    1.55171 255 255 255
-0.0599752 -0.0500331    1.48194 255 255 255
-0.116072  0.504914   1.48294 255 255 255
-0.0925324   0.488018    1.55158 255 255 255
0.364778 0.384971  1.79539 255 255 255
0.0092771  0.141411   1.47983 255 255 255
-0.0514228   0.456337    1.87812 255 255 255
-0.140264  0.520701   1.40312 255 255 255
0.0584754 -0.314085   1.61911 255 255 255
-0.182189  0.295381   1.49288 255 255 255
-0.106211  0.517029   1.48482 255 255 255
0.168671  1.72462  4.82184 255 255 255
-2.14329e-06     0.212303      1.49708 255 255 255
-0.0159895   0.559292    1.64142 255 255 255
-0.0640085   0.505103    1.56532 255 255 255
-0.321738  0.369983   1.43864 255 255 255
-0.0690835  0.0717139    1.47602 255 255 255
-0.17237 0.407358  1.48388 255 255 255
-0.0973576   0.266395    1.52341 255 255 255
 -0.1529 0.469987  1.46583 255 255 255
-0.222605  0.409574   1.47245 255 255 255
0.326909   -1.676  5.80235 255 255 255
-0.0471727    0.13203    1.47881 255 255 255
0.448605 -1.41153  5.62186 255 255 255
-0.321733  0.384515   1.41026 255 255 255
0.124958  1.78726   5.0098 255 255 255
 0.0054626 -0.0977193    1.47981 255 255 255
 0.31119 0.235255  1.21449 255 255 255
-0.121945  0.445977   1.52925 255 255 255
-0.246814  0.433305   1.39593 255 255 255
-0.248354  0.383727   1.46438 255 255 255
0.0291851  0.178167   1.49029 255 255 255
0.000236411    0.132234     1.47859 255 255 255
-0.0249236 -0.0506632     1.4754 255 255 255
-0.198661  0.451035   1.43623 255 255 255
-0.0393929   0.530488    1.68769 255 255 255
 -0.0511233 -0.00344449     1.47199 255 255 255
0.208768   1.4166  5.97409 255 255 255
-0.0675584  0.0214491    1.47054 255 255 255
0.103171  1.73306  5.75296 255 255 255
0.242648 0.329727  1.50808 255 255 255
0.0573274  0.595355   2.03571 255 255 255
-0.0180835 -0.0350705     1.4748 255 255 255
0.259893 -1.77359  5.92778 255 255 255
-0.17388 0.418067  1.48646 255 255 255
-0.255564  0.480572   1.30808 255 255 255
-0.0271722   0.153275    1.48067 255 255 255
-0.242077  0.414783   1.44889 255 255 255
-0.107323  0.259846   1.51913 255 255 255
-0.339259  0.389525   1.37757 255 255 255
0.0103982 -0.218079    1.5032 255 255 255
   0.125646 -0.00434303     1.51505 255 255 255
-0.28039 0.396018  1.43461 255 255 255
 0.110426 -0.148638   1.58654 255 255 255
  0.239572 -0.0141357    1.64964 255 255 255
-0.223728 0.0843707   1.52009 255 255 255
0.0342163 0.0487825    1.4906 255 255 255
-0.144958 0.0602753     1.468 255 255 255
-0.202931  -0.27491   1.59938 255 255 255
-0.353794  0.393061   1.35798 255 255 255
0.205372 0.147195  1.62705 255 255 255
-0.0262514 -0.0451823    1.47555 255 255 255
 -0.168258 -0.0327353    1.47128 255 255 255
 -0.176238 -0.0978889    1.49001 255 255 255
-0.0128514   0.618504    1.54449 255 255 255
-0.122909  0.430181   1.51902 255 255 255
0.161369 0.224556  1.60851 255 255 255
  0.108773 -0.0669848    1.49915 255 255 255
-0.224228  0.460101   1.34369 255 255 255
-0.0460117   0.598598    1.53969 255 255 255
-0.0323985   0.600652    1.51066 255 255 255
-0.059335  0.321755   1.54396 255 255 255
-0.289571  0.406601   1.39324 255 255 255
0.961521  2.00618  4.90129 255 255 255
-0.0171708 -0.0296277    1.47604 255 255 255
-0.237708  0.342868   1.46762 255 255 255
-0.194709  0.366918   1.48458 255 255 255
-0.167467 0.0822827   1.50013 255 255 255
0.193891 0.101272  1.57335 255 255 255
0.0444032  0.575794   1.74967 255 255 255
-0.348933   0.40272   1.35371 255 255 255
 -0.269625 -0.0515158    1.53049 255 255 255
-0.202689 -0.175453   1.49924 255 255 255
-0.224356 -0.199063   1.52093 255 255 255
-0.211656 -0.196586   1.49426 255 255 255
-0.278852  0.425967   1.38404 255 255 255
-0.245307  0.354828   1.47022 255 255 255
-0.253878  0.360695   1.46704 255 255 255
0.900187 -1.84416  5.77334 255 255 255
-0.00493496   -0.108923     1.47845 255 255 255
-0.176671 -0.234075   1.49555 255 255 255
-0.335939  0.413509   1.35488 255 255 255
-0.104908  -0.19352   1.47895 255 255 255
-2.07292 -1.78705  6.50533 255 255 255
-0.064407   0.17798   1.49269 255 255 255
0.550769 -1.95214  5.90016 255 255 255
-0.157133 -0.114492   1.46767 255 255 255
 1.04457 -1.37618  5.39668 255 255 255
0.766128  1.50457  6.15377 255 255 255
0.127536  0.27221  1.55737 255 255 255
 -0.048997 -0.0585418    1.47547 255 255 255
-0.320651  0.383109   1.40338 255 255 255
-0.203247 -0.156265   1.49155 255 255 255
   0.13005 -0.0609495    1.51612 255 255 255
-0.145896  0.480313   1.45789 255 255 255
0.119354 0.183688  1.53923 255 255 255
-0.149158  0.462027   1.48517 255 255 255
0.183014  0.18169  1.11443 255 255 255
-0.123382 0.0550483   1.48142 255 255 255
-0.0759128  -0.102927    1.47277 255 255 255
-0.0438295  -0.159541    1.47593 255 255 255
-0.0521306 0.00152182    1.47166 255 255 255
-0.0559784   0.601989    1.46539 255 255 255
 1.1587 1.31375 5.81529 255 255 255
-0.0655266   0.286055    1.54827 255 255 255
-0.187593  0.377643   1.47428 255 255 255
1.27616 1.38142 5.83777 255 255 255
-0.224245  0.438545   1.40377 255 255 255
-0.0647931   0.029878    1.47008 255 255 255
 -0.0373934 -0.00151703     1.47066 255 255 255
-0.147119  0.485852   1.43701 255 255 255
-0.108682 -0.113664   1.46568 255 255 255
 1.12059 -1.42967  5.60273 255 255 255
-0.129182 -0.207381   1.48459 255 255 255
1.03732 1.56675 5.84351 255 255 255
-0.0367042   0.102339    1.47509 255 255 255
-0.158281  0.432189   1.49464 255 255 255
-0.277021  0.431188   1.38274 255 255 255
-0.331337  0.402592   1.37266 255 255 255
-0.167856 -0.179508   1.48878 255 255 255
-0.0961302   0.269918    1.52204 255 255 255
-0.114387 -0.147802   1.47749 255 255 255
-0.124723  0.551755   1.39606 255 255 255
0.00347581   0.171025    1.48861 255 255 255
0.397423  -1.8402  5.99887 255 255 255
0.172807 0.126954  1.58981 255 255 255
-0.0728519 -0.0913343    1.47793 255 255 255
-0.0330677 -0.0279354    1.47356 255 255 255
-0.167489 -0.148253   1.48489 255 255 255
-0.166598 -0.146632   1.47621 255 255 255
 0.151867 0.0576212   1.57599 255 255 255
0.0368461  0.145264   1.48702 255 255 255
-0.0409772   0.615936    1.47967 255 255 255
-0.230088  -0.20701   1.51455 255 255 255
-0.251816  0.441219   1.39048 255 255 255
-0.196094 -0.241465   1.50517 255 255 255
-0.0315742  -0.223598    1.48845 255 255 255
-0.0366897   0.158752    1.48659 255 255 255
-0.122516 -0.100912    1.4791 255 255 255
-0.142292 -0.126022   1.47632 255 255 255
-0.111753  0.534998   1.44381 255 255 255
-0.073927 -0.122885   1.47271 255 255 255
-0.397498  0.388158   1.35955 255 255 255
1.15491 1.14793 5.46521 255 255 255
0.406606 0.469275  2.11478 255 255 255
1.21018  1.3696 5.93746 255 255 255
0.0585313   0.26339   1.53483 255 255 255
-0.0685962   0.240137    1.51559 255 255 255
0.504591 -2.13027  6.20721 255 255 255
0.025841 0.293064  1.55071 255 255 255
 1.09021 -1.44662  5.46829 255 255 255
-0.0911636    0.26381    1.52105 255 255 255
-0.354449  0.407889   1.29823 255 255 255
-0.387592  0.392183   1.35332 255 255 255
0.431821 -2.10507  6.32788 255 255 255
-0.342087  0.432661   1.29868 255 255 255
-0.0263178  0.0700337    1.46723 255 255 255
0.0460797 -0.217694   1.51336 255 255 255
 0.57126 -2.17712  6.35541 255 255 255
-0.150649  0.522691   1.39924 255 255 255
-0.438406  0.397536   1.33465 255 255 255
-0.0320161 -0.0206547    1.47159 255 255 255
0.0863296 -0.179538   1.51907 255 255 255
0.982601 -1.51729  5.49018 255 255 255
-0.282128  0.433042   1.37962 255 255 255
-0.344018   0.40545   1.29805 255 255 255
-0.0475889    0.20497    1.49689 255 255 255
 0.65779 -2.00415  6.10768 255 255 255
-0.193386  0.406224   1.46754 255 255 255
-0.0813072   0.166198    1.48392 255 255 255
-0.0486431   0.116402    1.47729 255 255 255
-0.158594 -0.205302   1.49625 255 255 255
 1.21453 -1.34475  5.37579 255 255 255
-0.0552344     0.5713     1.5212 255 255 255
0.608925 -1.99662  6.03188 255 255 255
0.81089 1.66133  5.6372 255 255 255
1.06334 1.98713 4.76517 255 255 255
-0.00190071    0.164811     1.48889 255 255 255
-0.196262  0.263856  0.922229 255 255 255
-0.333807  0.368945   1.41779 255 255 255
-0.00371805    0.172343     1.48934 255 255 255
-0.0616339   0.515341    1.56527 255 255 255
-0.251944  0.471302    1.3247 255 255 255
-0.269653  0.474811   1.31537 255 255 255
 -0.236221 -0.0606557      1.505 255 255 255
1.01634 1.51967 5.77432 255 255 255
1.25752 1.27056  5.8925 255 255 255
-0.0958614  -0.259346    1.50127 255 255 255
-2.40643 -1.95367  6.54344 255 255 255
-0.346662  0.424356   1.29338 255 255 255
-0.289936  0.465103   1.30868 255 255 255
 1.07924 -1.63354  5.69387 255 255 255
-0.258171  0.489304   1.31848 255 255 255
-0.103071  0.125958   1.48717 255 255 255
-0.267536   0.38869   1.44424 255 255 255
-0.0717173  0.0781759    1.47648 255 255 255
-0.252561  0.414783   1.41487 255 255 255
0.892401 -1.49274  5.45103 255 255 255
-0.0334366  -0.153174    1.47435 255 255 255
-0.0822255   0.474794    1.77256 255 255 255
-0.195157   0.45832    1.4167 255 255 255
  0.118935 -0.0520214    1.51354 255 255 255
0.0240278  0.611625   1.63263 255 255 255
-0.0791843   -1.36433    5.66979 255 255 255
-0.0648887   0.579875    1.46252 255 255 255
-0.171787  0.428627   1.48478 255 255 255
-0.121933 0.0748283   1.48338 255 255 255
-0.347078  0.365258   1.43493 255 255 255
-0.266328  0.341297   1.47666 255 255 255
-0.386215   1.36213   5.97796 255 255 255
0.0577135  0.549633   1.95189 255 255 255
0.00935579   0.473599    1.77607 255 255 255
-0.255213  0.416358   1.39538 255 255 255
 0.115508 0.0118911   1.53157 255 255 255
-0.23432 0.438338   1.3933 255 255 255
-0.25436 0.440902  1.32937 255 255 255
-0.0225435  -0.195841    1.48064 255 255 255
0.0805107  0.598745   1.91181 255 255 255
  0.114773 0.00183515    1.54914 255 255 255
-0.0643054 -0.0405176    1.48196 255 255 255
-0.414979   1.42096   6.07983 255 255 255
0.378543 -1.70504  5.79218 255 255 255
-0.270867  0.467723   1.32059 255 255 255
-0.0845679  -0.107189    1.47973 255 255 255
-0.0901771     1.3835    5.80152 255 255 255
-0.0629857   0.267555    1.52847 255 255 255
-0.290297  0.434054   1.37087 255 255 255
-0.152032 -0.199135     1.497 255 255 255
-0.223307    0.2998   1.49281 255 255 255
  0.120764 -0.0640005    1.50092 255 255 255
0.0815057   1.11259   5.89441 255 255 255
-0.192052  0.403199   1.47637 255 255 255
-0.256415   0.46956   1.32026 255 255 255
-0.0609782 -0.0317428    1.47871 255 255 255
-0.0204781   0.510713    1.74399 255 255 255
 -0.111686 -0.0964059    1.47767 255 255 255
 0.110219 0.0949824   1.53458 255 255 255
-0.0462436   0.103052    1.49276 255 255 255
-0.233782  0.301876   1.49891 255 255 255
 -0.156682 -0.0440612    1.43864 255 255 255
-0.213343 -0.337449   1.68438 255 255 255
-0.103503  0.477821   1.52007 255 255 255
-0.413029  0.405551   1.34084 255 255 255
-0.308076  0.456118   1.29595 255 255 255
-0.26981 0.427812   1.3881 255 255 255
-0.297653  0.353805   1.45536 255 255 255
-0.394225  0.394222   1.36178 255 255 255
-0.311613  0.449899   1.23235 255 255 255
-0.394391  0.367062   1.36059 255 255 255
-0.148999 0.0160389   1.48406 255 255 255
-0.413837  0.414458   1.28264 255 255 255
-0.0647843   0.314462    1.54599 255 255 255
-0.348142  0.340768   1.45056 255 255 255
-0.422245  0.438633   1.19533 255 255 255
-0.424378  0.405902   1.30854 255 255 255
-0.264313  0.488639   1.31037 255 255 255
-0.37922 0.351322  1.40957 255 255 255
-0.415365  0.397053   1.34859 255 255 255
-0.356579  0.442734   1.29122 255 255 255
-0.452269  0.402976   1.33287 255 255 255
-0.141092  0.479072   1.46247 255 255 255
-0.00838129  -0.0483437     1.47678 255 255 255
-0.394886  0.426894   1.26378 255 255 255
-0.260074  0.468512   1.31951 255 255 255
 -0.178711 -0.0163566    1.45553 255 255 255
-0.372891  0.361085   1.38147 255 255 255
-0.327117  0.470352   1.24619 255 255 255
-0.400995  0.463249     1.197 255 255 255
-0.423586  0.439583   1.22161 255 255 255
-0.358001  0.443446   1.23653 255 255 255
0.00802449   0.584877     1.6721 255 255 255
-0.0593876  -0.175992    1.47798 255 255 255
-0.3105 0.29513 1.52238 255 255 255
-0.320334  0.348194   1.43908 255 255 255
-0.36227  0.46607  1.21723 255 255 255
-0.0408447   0.523216    1.62735 255 255 255
   0.133068 -0.00726691     1.55172 255 255 255
-0.432566  0.408287   1.27159 255 255 255
-0.369106  0.383171   1.37987 255 255 255
-0.340674   0.45139   1.20579 255 255 255
-0.165749 0.0182649   1.48795 255 255 255
-0.0224756   0.513176    1.77522 255 255 255
-0.383536  0.461656   1.21067 255 255 255
-0.422237  0.452823   1.20412 255 255 255
-0.439766   0.42764   1.24884 255 255 255
 1.18057 -1.86082   5.7697 255 255 255
-0.407351  0.430648   1.26571 255 255 255
-0.412469  0.455596   1.19778 255 255 255
-0.414962  0.424388    1.2627 255 255 255
-0.129737 -0.189273   1.48492 255 255 255
-0.363656  0.453896     1.244 255 255 255
-0.285824  0.459643   1.31482 255 255 255
-0.428762  0.432455   1.21361 255 255 255
-0.39127 0.424244  1.27962 255 255 255
-0.345887  0.413788    1.2971 255 255 255
  0.166619 -0.0130796    1.59593 255 255 255
0.0545061 -0.152809    1.4977 255 255 255
-0.232744  0.336113   1.47775 255 255 255
-0.242839 -0.330813   1.63331 255 255 255
-0.383772  0.433242   1.23552 255 255 255
-0.35134 0.347581  1.42605 255 255 255
-0.377436  0.402641    1.2875 255 255 255
-0.30921 0.153943  1.68337 255 255 255
 -0.131936 -0.0744857    1.42254 255 255 255
-0.396211  0.409711    1.2776 255 255 255
-0.367507  0.426854   1.29339 255 255 255
-0.213571 -0.181164   1.50501 255 255 255
0.201097 0.271609  1.70787 255 255 255
-0.392912  0.382255   1.36318 255 255 255
-0.0793585 -0.0476655    1.48359 255 255 255
-0.0377984   0.102043    1.47402 255 255 255
-0.283408  0.392487   1.39413 255 255 255
-0.323572  0.440865   1.29538 255 255 255
0.0878055 -0.234109   1.55209 255 255 255
0.140207 0.280737  1.57114 255 255 255
-0.294924  0.415328   1.38333 255 255 255
-0.338388  0.407643   1.31442 255 255 255
-0.219215 -0.248463   1.52637 255 255 255
-0.157244  0.512387   1.38222 255 255 255
-0.171865  0.392346   1.48945 255 255 255
-0.350831  0.435987   1.29597 255 255 255
-0.261744 -0.104023   1.51951 255 255 255
-0.170913  0.464643   1.45978 255 255 255
-0.342018  0.436761   1.24762 255 255 255
-0.0626949  0.0406851    1.47665 255 255 255
0.0421052  0.240556   1.51529 255 255 255
  0.198746 -0.0417447    1.63206 255 255 255
 -0.148074 -0.0862385    1.46646 255 255 255
   0.108104 -0.00361614     1.54611 255 255 255
-0.250517 0.0210186   1.52776 255 255 255
-0.339281  0.439416    1.2789 255 255 255
-0.185614 -0.110415   1.49491 255 255 255
-0.049929 -0.131497   1.47608 255 255 255
-0.192599  0.440936    1.4473 255 255 255
 -0.3077 0.343405  1.46244 255 255 255
-0.40652 0.395477  1.34359 255 255 255
-0.340937  0.441991   1.26835 255 255 255
-0.398235  0.380624   1.35712 255 255 255
0.172807 0.126954  1.58981 255 255 255
0.072567 0.252952  1.53199 255 255 255
-0.401754  0.453424   1.20718 255 255 255
1.02492 1.76674 4.81305 255 255 255
-0.352253  0.420356   1.29392 255 255 255
-0.254935  0.436796   1.32583 255 255 255
0.0215647  0.107301   1.47829 255 255 255
 0.024289 -0.138515    1.4806 255 255 255
0.0136232  0.282714   1.53376 255 255 255
-0.398702  0.454257   1.21144 255 255 255
-0.262192  0.453306    1.3223 255 255 255
-0.189893 -0.234769   1.50418 255 255 255
-0.343216  0.421157   1.29534 255 255 255
-0.205246 -0.100394   1.48943 255 255 255
-0.00861871    0.286499     1.54484 255 255 255
-0.0218577   0.611165    1.56353 255 255 255
  0.15998 -0.198862   1.63217 255 255 255
-0.137197   0.37645   1.36153 255 255 255
-0.0393938   0.525135    1.61446 255 255 255
0.00789496   0.577022    1.65552 255 255 255
0.135236   0.1666  1.53598 255 255 255
-0.0776179  -0.179463    1.47933 255 255 255
-0.0390739   0.308741    1.55355 255 255 255
0.191987  0.16559  1.60926 255 255 255
0.0142628  0.547065   1.72545 255 255 255
-0.182859     0.512   1.34959 255 255 255
-0.560273   1.45944   6.10749 255 255 255
-0.350337  0.412309   1.36087 255 255 255
0.0397153  0.325834    1.6823 255 255 255
0.0469699  0.277395   1.54437 255 255 255
-0.298424  0.352319   1.45437 255 255 255
-0.0270293   0.468896    1.85913 255 255 255
-0.0625941  -0.167692    1.46941 255 255 255
-0.00158021   -0.165452     1.47843 255 255 255
0.0100483  0.577508   1.71034 255 255 255
-0.0893008     0.4893    1.55882 255 255 255
-0.186662  0.483565   1.35344 255 255 255
-0.21103 0.444495  1.42361 255 255 255
0.0395699  0.264917   1.52984 255 255 255
-0.0648328   0.232479    1.50889 255 255 255
-0.00152996     0.20442      1.4917 255 255 255
0.149259 0.123023  1.56925 255 255 255
-0.0763452   0.540174    1.52231 255 255 255
0.0235264  0.109326   1.51596 255 255 255
 0.13092 0.247191  1.59132 255 255 255
   0.227184 -0.00889314     1.71444 255 255 255
0.142361 0.270701  1.64994 255 255 255
  0.181873 -0.0610152    1.62538 255 255 255
  -0.183348 -0.00148934     1.46944 255 255 255
  0.170516 -0.0136749    1.67283 255 255 255
 0.0962302 -0.0519435    1.50477 255 255 255
0.997667 -1.31755  5.38566 255 255 255
 -0.211149 -0.0941912    1.50622 255 255 255
0.147681   1.7372  4.81282 255 255 255
-0.00566552    0.490445     1.76318 255 255 255
0.170912 0.201948  1.60603 255 255 255
-0.0292462   0.456805    1.83951 255 255 255
-0.0782989  -0.237589    1.50819 255 255 255
-0.0100491   0.469171    1.83213 255 255 255
-0.31926 0.288728  1.55926 255 255 255
  1.1623 -1.47059  5.51598 255 255 255
-0.328699  0.328199     1.473 255 255 255
0.793934  1.75815  4.80328 255 255 255
0.0207046  0.574794   2.19039 255 255 255
0.140166  1.81367  5.53272 255 255 255
 0.16586 0.170796  1.56786 255 255 255
-0.345569  0.160504   1.40315 255 255 255
-0.163202  0.472646   1.42446 255 255 255
 0.142427 -0.202462   1.59977 255 255 255
-0.371204  0.348474   1.44439 255 255 255
-0.230899  0.452104   1.40088 255 255 255
0.870704   -1.518   5.2496 255 255 255
-0.213959 -0.081484   1.49736 255 255 255
0.107619 0.635597   2.0031 255 255 255
0.0777978  0.625856   2.04788 255 255 255
0.551754 -1.41879  5.49707 255 255 255
0.107637  1.48174  5.69967 255 255 255
0.0212792  0.587154   1.74517 255 255 255
0.806048  1.63672  6.07931 255 255 255
0.173653  1.25216  5.79499 255 255 255
-0.0930273   0.288818    1.52469 255 255 255
 0.04106 0.565859  1.82444 255 255 255
-0.200128 -0.138769   1.50203 255 255 255
-0.184107   1.55849   5.87797 255 255 255
0.520486  1.64125  6.06765 255 255 255
-0.321135  0.342419   1.46189 255 255 255
0.906343  1.35086  5.85389 255 255 255
 0.101104 0.0692922   1.51084 255 255 255
0.0522036     1.607   6.08685 255 255 255
0.177579   1.1061  5.91157 255 255 255
-2.69076 -1.89055  6.80735 255 255 255
-0.0295606   0.520319    1.73793 255 255 255
0.264223 -1.61101  5.79475 255 255 255
0.0834266 -0.242932    1.5367 255 255 255
-0.144487  0.478569   1.46273 255 255 255
-0.0321722  -0.126209    1.47028 255 255 255
-0.00991297    0.557602     1.65133 255 255 255
0.595029 -1.91529  6.01569 255 255 255
-0.290471  0.355789   1.47451 255 255 255
   0.0972691 -0.000530078      1.52044 255 255 255
 -0.157559 -0.0160066    1.49348 255 255 255
-0.0382553   0.266498    1.52663 255 255 255
-0.095752 -0.269982   1.51388 255 255 255
0.090096  1.83461  5.54427 255 255 255
0.517934  1.79828  5.14693 255 255 255
-0.0443265   0.461433    1.85169 255 255 255
-0.0304475   0.457771     1.8313 255 255 255
0.151299  1.07226  5.80222 255 255 255
-0.27049  0.44774   1.3688 255 255 255
-0.00195577    0.529185     1.72759 255 255 255
-0.210478  0.444244   1.41381 255 255 255
-0.0964786  -0.127774    1.47455 255 255 255
-0.179767 -0.185394   1.50193 255 255 255
 -0.205076 -0.0355198    1.46719 255 255 255
-0.446929   1.44528    6.0137 255 255 255
-0.270027  0.410017   1.43914 255 255 255
-0.0517906   0.316713    1.55491 255 255 255
-2.80706 -1.84253  6.74895 255 255 255
-0.26511 0.406093  1.42025 255 255 255
-0.159986 -0.299885   1.54844 255 255 255
0.018377 -0.23065  1.50473 255 255 255
0.0973842  0.607031   1.88331 255 255 255
0.00846751    0.56954    1.73424 255 255 255
0.0301119 -0.214757   1.52687 255 255 255
-0.342794  0.382509   1.38637 255 255 255
0.995829 -1.51565  5.42802 255 255 255
-0.0785604   0.175071    1.48948 255 255 255
-0.283531   1.42991   5.90523 255 255 255
-0.00533217    0.510688     1.76429 255 255 255
0.0126288  0.225842    1.5063 255 255 255
0.0351203  0.569155   2.00363 255 255 255
-0.106869  0.259448   1.51556 255 255 255
0.0158483 -0.132564   1.48703 255 255 255
-2.79064 -1.74785  6.75123 255 255 255
-0.0391309  -0.167422    1.48193 255 255 255
0.00323903  -0.158581    1.48186 255 255 255
-0.0588709 -0.0608262    1.48102 255 255 255
 -0.167807 -0.0686996    1.46885 255 255 255
0.0730544 -0.308426   1.62852 255 255 255
-0.0518121  -0.160323    1.47717 255 255 255
-0.243734  0.422221   1.44142 255 255 255
-0.28525 0.398509  1.39731 255 255 255
 0.066426 -0.308523   1.61155 255 255 255
0.0715559    0.6128   2.04031 255 255 255
  0.200153 -0.0508836    1.66324 255 255 255
0.149578  1.13489   5.9614 255 255 255
0.0444192 -0.265969   1.55303 255 255 255
-0.336311  0.346306   1.44782 255 255 255
-0.157777    0.4147   1.49126 255 255 255
-0.104421 -0.305792   1.83488 255 255 255
-0.185564  0.417096   1.47983 255 255 255
0.0536204  0.568746   1.88518 255 255 255
-0.141028  0.510453   1.43041 255 255 255
-0.174923 -0.417299   1.78902 255 255 255
-0.177028  -0.25525   1.53101 255 255 255
 0.46823 0.412301   2.4797 255 255 255
-0.0145651   0.355374    1.66146 255 255 255
-0.361626  0.291124   1.52358 255 255 255
-0.37922 0.351322  1.40957 255 255 255
-0.221948 0.0416488   1.51219 255 255 255
-0.267029    0.4377   1.37637 255 255 255
-0.243132 -0.333272   1.62147 255 255 255
-0.332262  0.447147   1.20901 255 255 255
-0.0124759   0.614112    1.54121 255 255 255
-0.338698  0.447623   1.24039 255 255 255
-0.372305  0.329549   1.43038 255 255 255
-0.367751  0.345736   1.44989 255 255 255
0.00190356   0.563343    1.69143 255 255 255
-0.259769  0.472326   1.32149 255 255 255
-0.334683  0.445006   1.25596 255 255 255
-0.379414  0.440946   1.23238 255 255 255
-0.0101419   0.600439    1.56455 255 255 255
-0.393351  0.405021   1.34015 255 255 255
-0.283772  0.431142   1.31612 255 255 255
-0.408864  0.337703   1.50844 255 255 255
1.04805 1.90746 4.72907 255 255 255
 -0.255943 -0.0447899    1.51765 255 255 255
-0.0616798   0.480836    1.64909 255 255 255
 0.122451 -0.207948   1.55782 255 255 255
-0.343509  0.412826     1.344 255 255 255
-0.0319244   0.578635    1.56821 255 255 255
-0.386936  0.432454   1.22287 255 255 255
-0.0190147   0.577971    1.57569 255 255 255
-0.325032  0.445241   1.28968 255 255 255
-0.367867  0.361515   1.42005 255 255 255
  0.174753 -0.0234042    1.60404 255 255 255
-0.423104  0.432199   1.25957 255 255 255
-0.236325 -0.196033   1.51844 255 255 255
 -0.340248 -0.0598261    1.65186 255 255 255
0.00460086   0.596653    1.66424 255 255 255
0.0286216  0.545926   1.74671 255 255 255
-0.0579498    0.46059    1.66101 255 255 255
0.0108841  0.517507   1.75977 255 255 255
-0.355887  0.408685   1.35048 255 255 255
0.149745 0.218565  1.58056 255 255 255
-0.150447  0.517604   1.38762 255 255 255
0.0928349  0.299998   1.58986 255 255 255
-0.131796   0.54502   1.38867 255 255 255
-0.424707  0.420404   1.22231 255 255 255
-0.079569 -0.235918   1.48444 255 255 255
0.010079 0.607102  1.66835 255 255 255
  0.143299 -0.0602007    1.52995 255 255 255
0.0873058   0.30924   1.63233 255 255 255
-0.363247  0.401244   1.33636 255 255 255
-0.126414 -0.108047   1.48286 255 255 255
-0.430532  0.427634   1.25985 255 255 255
 -0.208148 -0.0851624    1.49152 255 255 255
 -0.187372 -0.0985911    1.48631 255 255 255
-0.333363   0.41029   1.29815 255 255 255
-0.394032  0.449127    1.2128 255 255 255
-0.42544 0.431644  1.21985 255 255 255
-0.0918893  -0.233026    1.48372 255 255 255
-0.207342  0.454578   1.43384 255 255 255
-0.395315  0.339817   1.44183 255 255 255
1.07087 1.96951  4.8576 255 255 255
-0.252166 -0.314365   1.61052 255 255 255
-2.39837 -1.86587   6.5711 255 255 255
-0.316553  0.457786   1.24767 255 255 255
-0.298562  0.391503   1.42598 255 255 255
-0.373233  0.405099   1.35786 255 255 255
 -0.262047 0.00112755    1.52203 255 255 255
-0.380133  0.426214   1.23626 255 255 255
-0.0745324  -0.123858    1.47798 255 255 255
-0.330497  0.321903   1.49023 255 255 255
-0.428059  0.426222   1.21442 255 255 255
 -0.21294 -0.212514   1.50743 255 255 255
-0.236106  0.456326   1.38461 255 255 255
-0.239372 -0.117144   1.50894 255 255 255
-0.104779 -0.222689   1.48816 255 255 255
-0.183517  0.512945   1.35041 255 255 255
-0.136575 -0.127329   1.47944 255 255 255
-0.253217 -0.116242   1.54326 255 255 255
-0.356959  0.400992   1.35149 255 255 255
-0.0273907  -0.154828    1.47755 255 255 255
-0.26235 -0.04711  1.52425 255 255 255
-0.226682  0.435805   1.44016 255 255 255
1.07677 1.59193 5.82624 255 255 255
-0.340475  0.433192   1.29435 255 255 255
-0.431445  0.417314   1.26543 255 255 255
-0.319336  0.442427   1.30325 255 255 255
  -0.221525 -0.00144634     1.48726 255 255 255
-0.246988  0.472939   1.32228 255 255 255
-0.239715  0.448344   1.38079 255 255 255
-0.0847368  -0.123046    1.47522 255 255 255
0.0780258 -0.113989   1.49789 255 255 255
0.409418 -1.66839  5.74683 255 255 255
-0.285328  0.420746   1.38363 255 255 255
-0.0133868  -0.145653    1.47512 255 255 255
-0.41754 0.447651    1.206 255 255 255
-0.0220616   0.214162    1.49764 255 255 255
-0.274322  0.399235   1.39481 255 255 255
-0.0438785   0.523659    1.63514 255 255 255
-0.092484 -0.035866    1.4732 255 255 255
1.27082 1.53472 5.98778 255 255 255
-0.299726  0.374009    1.4378 255 255 255
 1.11734 -1.47738   5.4381 255 255 255
0.920809   1.7445   5.5932 255 255 255
0.0336776  0.183075   1.49674 255 255 255
-0.361167  0.419247   1.29539 255 255 255
 -0.183611 -0.0670226    1.44447 255 255 255
0.145637  0.25263  1.57875 255 255 255
-0.288232   0.43732   1.36337 255 255 255
-0.369576  0.433645   1.27848 255 255 255
0.938664   1.4683  5.83186 255 255 255
-0.219346 -0.146835     1.494 255 255 255
-0.0209659   0.153796    1.48489 255 255 255
-0.197251 -0.150043   1.48827 255 255 255
0.427068  1.58945  6.06788 255 255 255
1.11146  1.4416 5.92185 255 255 255
-0.00241095    0.205243     1.49362 255 255 255
-0.362078  0.330442   1.46121 255 255 255
-0.185744 -0.225787   1.49756 255 255 255
-0.32659 0.328452  1.47018 255 255 255
-0.233215  0.429439   1.44165 255 255 255
-0.113388  0.503534   1.49195 255 255 255
0.0510296  0.215572   1.50993 255 255 255
0.0940275 -0.309697   1.63471 255 255 255
 -0.171848 -0.0944943     1.4828 255 255 255
-0.0397666    1.34606    5.91321 255 255 255
   0.131791 -0.00953759     1.56744 255 255 255
-0.0303586     0.4995    1.73934 255 255 255
0.198101 0.133837   1.6078 255 255 255
-0.0788461  -0.261105    1.51457 255 255 255
-0.0595397  -0.208282    1.48582 255 255 255
-0.0517906   0.316713    1.55491 255 255 255
-0.247634  0.432744   1.39634 255 255 255
-0.155688 -0.248389   1.48294 255 255 255
-0.429214  0.394665    1.3382 255 255 255
 0.114154 0.0128818   1.54169 255 255 255
