<?xml version="1.0" standalone="yes"?>
<!-- SVG graphic -->
<svg xmlns='http://www.w3.org/2000/svg' xmlns:xlink='http://www.w3.org/1999/xlink'
 version="1.1">
<rect x="0" y="0" width="6" height="200" stroke="black" stroke-width="1" fill="blue" tooltip="enable"><title>(0,2037)</title></rect><rect x="6" y="32.6951" width="6" height="167.305" stroke="black" stroke-width="1" fill="blue" tooltip="enable"><title>(0.0396732,1704)</title></rect><rect x="12" y="50.3682" width="6" height="149.632" stroke="black" stroke-width="1" fill="blue" tooltip="enable"><title>(0.0793465,1524)</title></rect><rect x="18" y="61.8557" width="6" height="138.144" stroke="black" stroke-width="1" fill="blue" tooltip="enable"><title>(0.11902,1407)</title></rect><rect x="24" y="69.9067" width="6" height="130.093" stroke="black" stroke-width="1" fill="blue" tooltip="enable"><title>(0.158693,1325)</title></rect><rect x="30" y="79.2342" width="6" height="120.766" stroke="black" stroke-width="1" fill="blue" tooltip="enable"><title>(0.198366,1230)</title></rect><rect x="36" y="81.8851" width="6" height="118.115" stroke="black" stroke-width="1" fill="blue" tooltip="enable"><title>(0.238039,1203)</title></rect><rect x="42" y="80.1178" width="6" height="119.882" stroke="black" stroke-width="1" fill="blue" tooltip="enable"><title>(0.277713,1221)</title></rect><rect x="48" y="100.344" width="6" height="99.6564" stroke="black" stroke-width="1" fill="blue" tooltip="enable"><title>(0.317386,1015)</title></rect><rect x="54" y="106.627" width="6" height="93.3726" stroke="black" stroke-width="1" fill="blue" tooltip="enable"><title>(0.357059,951)</title></rect><rect x="60" y="102.307" width="6" height="97.6927" stroke="black" stroke-width="1" fill="blue" tooltip="enable"><title>(0.396732,995)</title></rect><rect x="66" y="107.511" width="6" height="92.489" stroke="black" stroke-width="1" fill="blue" tooltip="enable"><title>(0.436406,942)</title></rect><rect x="72" y="112.322" width="6" height="87.678" stroke="black" stroke-width="1" fill="blue" tooltip="enable"><title>(0.476079,893)</title></rect><rect x="78" y="112.224" width="6" height="87.7761" stroke="black" stroke-width="1" fill="blue" tooltip="enable"><title>(0.515752,894)</title></rect><rect x="84" y="119.293" width="6" height="80.7069" stroke="black" stroke-width="1" fill="blue" tooltip="enable"><title>(0.555425,822)</title></rect><rect x="90" y="124.399" width="6" height="75.6014" stroke="black" stroke-width="1" fill="blue" tooltip="enable"><title>(0.595098,770)</title></rect><rect x="96" y="128.326" width="6" height="71.674" stroke="black" stroke-width="1" fill="blue" tooltip="enable"><title>(0.634772,730)</title></rect><rect x="102" y="124.89" width="6" height="75.1105" stroke="black" stroke-width="1" fill="blue" tooltip="enable"><title>(0.674445,765)</title></rect><rect x="108" y="131.271" width="6" height="68.7285" stroke="black" stroke-width="1" fill="blue" tooltip="enable"><title>(0.714118,700)</title></rect><rect x="114" y="133.628" width="6" height="66.3721" stroke="black" stroke-width="1" fill="blue" tooltip="enable"><title>(0.753791,676)</title></rect><rect x="120" y="140.403" width="6" height="59.5974" stroke="black" stroke-width="1" fill="blue" tooltip="enable"><title>(0.793465,607)</title></rect><rect x="126" y="136.573" width="6" height="63.4266" stroke="black" stroke-width="1" fill="blue" tooltip="enable"><title>(0.833138,646)</title></rect><rect x="132" y="141.188" width="6" height="58.812" stroke="black" stroke-width="1" fill="blue" tooltip="enable"><title>(0.872811,599)</title></rect><rect x="138" y="149.73" width="6" height="50.27" stroke="black" stroke-width="1" fill="blue" tooltip="enable"><title>(0.912484,512)</title></rect><rect x="144" y="148.159" width="6" height="51.8409" stroke="black" stroke-width="1" fill="blue" tooltip="enable"><title>(0.952158,528)</title></rect><rect x="150" y="149.043" width="6" height="50.9573" stroke="black" stroke-width="1" fill="blue" tooltip="enable"><title>(0.991831,519)</title></rect><rect x="156" y="148.65" width="6" height="51.35" stroke="black" stroke-width="1" fill="blue" tooltip="enable"><title>(1.0315,523)</title></rect><rect x="162" y="150.515" width="6" height="49.4845" stroke="black" stroke-width="1" fill="blue" tooltip="enable"><title>(1.07118,504)</title></rect><rect x="168" y="155.326" width="6" height="44.6735" stroke="black" stroke-width="1" fill="blue" tooltip="enable"><title>(1.11085,455)</title></rect><rect x="174" y="155.817" width="6" height="44.1826" stroke="black" stroke-width="1" fill="blue" tooltip="enable"><title>(1.15052,450)</title></rect><rect x="180" y="161.021" width="6" height="38.9789" stroke="black" stroke-width="1" fill="blue" tooltip="enable"><title>(1.1902,397)</title></rect><rect x="186" y="163.279" width="6" height="36.7207" stroke="black" stroke-width="1" fill="blue" tooltip="enable"><title>(1.22987,374)</title></rect><rect x="192" y="162.101" width="6" height="37.8989" stroke="black" stroke-width="1" fill="blue" tooltip="enable"><title>(1.26954,386)</title></rect><rect x="198" y="165.832" width="6" height="34.1679" stroke="black" stroke-width="1" fill="blue" tooltip="enable"><title>(1.30922,348)</title></rect><rect x="204" y="165.93" width="6" height="34.0697" stroke="black" stroke-width="1" fill="blue" tooltip="enable"><title>(1.34889,347)</title></rect><rect x="210" y="167.501" width="6" height="32.4988" stroke="black" stroke-width="1" fill="blue" tooltip="enable"><title>(1.38856,331)</title></rect><rect x="216" y="170.25" width="6" height="29.7496" stroke="black" stroke-width="1" fill="blue" tooltip="enable"><title>(1.42824,303)</title></rect><rect x="222" y="171.821" width="6" height="28.1787" stroke="black" stroke-width="1" fill="blue" tooltip="enable"><title>(1.46791,287)</title></rect><rect x="228" y="172.509" width="6" height="27.4914" stroke="black" stroke-width="1" fill="blue" tooltip="enable"><title>(1.50758,280)</title></rect><rect x="234" y="173.098" width="6" height="26.9023" stroke="black" stroke-width="1" fill="blue" tooltip="enable"><title>(1.54726,274)</title></rect><rect x="240" y="174.865" width="6" height="25.135" stroke="black" stroke-width="1" fill="blue" tooltip="enable"><title>(1.58693,256)</title></rect><rect x="246" y="175.749" width="6" height="24.2514" stroke="black" stroke-width="1" fill="blue" tooltip="enable"><title>(1.6266,247)</title></rect><rect x="252" y="175.847" width="6" height="24.1532" stroke="black" stroke-width="1" fill="blue" tooltip="enable"><title>(1.66628,246)</title></rect><rect x="258" y="177.712" width="6" height="22.2877" stroke="black" stroke-width="1" fill="blue" tooltip="enable"><title>(1.70595,227)</title></rect><rect x="264" y="180.265" width="6" height="19.7349" stroke="black" stroke-width="1" fill="blue" tooltip="enable"><title>(1.74562,201)</title></rect><rect x="270" y="178.4" width="6" height="21.6004" stroke="black" stroke-width="1" fill="blue" tooltip="enable"><title>(1.7853,220)</title></rect><rect x="276" y="181.149" width="6" height="18.8513" stroke="black" stroke-width="1" fill="blue" tooltip="enable"><title>(1.82497,192)</title></rect><rect x="282" y="180.658" width="6" height="19.3422" stroke="black" stroke-width="1" fill="blue" tooltip="enable"><title>(1.86464,197)</title></rect><rect x="288" y="181.934" width="6" height="18.0658" stroke="black" stroke-width="1" fill="blue" tooltip="enable"><title>(1.90432,184)</title></rect><rect x="294" y="185.665" width="6" height="14.3348" stroke="black" stroke-width="1" fill="blue" tooltip="enable"><title>(1.94399,146)</title></rect><rect x="300" y="185.174" width="6" height="14.8257" stroke="black" stroke-width="1" fill="blue" tooltip="enable"><title>(1.98366,151)</title></rect><rect x="306" y="185.272" width="6" height="14.7275" stroke="black" stroke-width="1" fill="blue" tooltip="enable"><title>(2.02333,150)</title></rect><rect x="312" y="185.469" width="6" height="14.5312" stroke="black" stroke-width="1" fill="blue" tooltip="enable"><title>(2.06301,148)</title></rect><rect x="318" y="185.469" width="6" height="14.5312" stroke="black" stroke-width="1" fill="blue" tooltip="enable"><title>(2.10268,148)</title></rect><rect x="324" y="188.513" width="6" height="11.4875" stroke="black" stroke-width="1" fill="blue" tooltip="enable"><title>(2.14235,117)</title></rect><rect x="330" y="186.058" width="6" height="13.9421" stroke="black" stroke-width="1" fill="blue" tooltip="enable"><title>(2.18203,142)</title></rect><rect x="336" y="189.2" width="6" height="10.8002" stroke="black" stroke-width="1" fill="blue" tooltip="enable"><title>(2.2217,110)</title></rect><rect x="342" y="189.985" width="6" height="10.0147" stroke="black" stroke-width="1" fill="blue" tooltip="enable"><title>(2.26137,102)</title></rect><rect x="348" y="191.262" width="6" height="8.73834" stroke="black" stroke-width="1" fill="blue" tooltip="enable"><title>(2.30105,89)</title></rect><rect x="354" y="190.083" width="6" height="9.91654" stroke="black" stroke-width="1" fill="blue" tooltip="enable"><title>(2.34072,101)</title></rect><rect x="360" y="189.494" width="6" height="10.5056" stroke="black" stroke-width="1" fill="blue" tooltip="enable"><title>(2.38039,107)</title></rect><rect x="366" y="190.28" width="6" height="9.72018" stroke="black" stroke-width="1" fill="blue" tooltip="enable"><title>(2.42007,99)</title></rect><rect x="372" y="190.967" width="6" height="9.03289" stroke="black" stroke-width="1" fill="blue" tooltip="enable"><title>(2.45974,92)</title></rect><rect x="378" y="191.654" width="6" height="8.34561" stroke="black" stroke-width="1" fill="blue" tooltip="enable"><title>(2.49941,85)</title></rect><rect x="384" y="192.636" width="6" height="7.36377" stroke="black" stroke-width="1" fill="blue" tooltip="enable"><title>(2.53909,75)</title></rect><rect x="390" y="191.065" width="6" height="8.93471" stroke="black" stroke-width="1" fill="blue" tooltip="enable"><title>(2.57876,91)</title></rect><rect x="396" y="192.047" width="6" height="7.95287" stroke="black" stroke-width="1" fill="blue" tooltip="enable"><title>(2.61843,81)</title></rect><rect x="402" y="194.305" width="6" height="5.69465" stroke="black" stroke-width="1" fill="blue" tooltip="enable"><title>(2.65811,58)</title></rect><rect x="408" y="191.949" width="6" height="8.05105" stroke="black" stroke-width="1" fill="blue" tooltip="enable"><title>(2.69778,82)</title></rect><rect x="414" y="194.011" width="6" height="5.9892" stroke="black" stroke-width="1" fill="blue" tooltip="enable"><title>(2.73745,61)</title></rect><rect x="420" y="194.207" width="6" height="5.79283" stroke="black" stroke-width="1" fill="blue" tooltip="enable"><title>(2.77713,59)</title></rect><rect x="426" y="194.6" width="6" height="5.4001" stroke="black" stroke-width="1" fill="blue" tooltip="enable"><title>(2.8168,55)</title></rect><rect x="432" y="194.698" width="6" height="5.30191" stroke="black" stroke-width="1" fill="blue" tooltip="enable"><title>(2.85647,54)</title></rect><rect x="438" y="195.68" width="6" height="4.32008" stroke="black" stroke-width="1" fill="blue" tooltip="enable"><title>(2.89615,44)</title></rect><rect x="444" y="195.876" width="6" height="4.12371" stroke="black" stroke-width="1" fill="blue" tooltip="enable"><title>(2.93582,42)</title></rect><rect x="450" y="196.269" width="6" height="3.73098" stroke="black" stroke-width="1" fill="blue" tooltip="enable"><title>(2.97549,38)</title></rect><rect x="456" y="196.76" width="6" height="3.24006" stroke="black" stroke-width="1" fill="blue" tooltip="enable"><title>(3.01517,33)</title></rect><rect x="462" y="194.993" width="6" height="5.00736" stroke="black" stroke-width="1" fill="blue" tooltip="enable"><title>(3.05484,51)</title></rect><rect x="468" y="197.349" width="6" height="2.65096" stroke="black" stroke-width="1" fill="blue" tooltip="enable"><title>(3.09451,27)</title></rect><rect x="474" y="197.251" width="6" height="2.74914" stroke="black" stroke-width="1" fill="blue" tooltip="enable"><title>(3.13419,28)</title></rect><rect x="480" y="196.171" width="6" height="3.82916" stroke="black" stroke-width="1" fill="blue" tooltip="enable"><title>(3.17386,39)</title></rect><rect x="486" y="198.036" width="6" height="1.96367" stroke="black" stroke-width="1" fill="blue" tooltip="enable"><title>(3.21353,20)</title></rect><rect x="492" y="197.938" width="6" height="2.06186" stroke="black" stroke-width="1" fill="blue" tooltip="enable"><title>(3.25321,21)</title></rect><rect x="498" y="197.84" width="6" height="2.16004" stroke="black" stroke-width="1" fill="blue" tooltip="enable"><title>(3.29288,22)</title></rect><rect x="504" y="197.84" width="6" height="2.16004" stroke="black" stroke-width="1" fill="blue" tooltip="enable"><title>(3.33255,22)</title></rect><rect x="510" y="197.742" width="6" height="2.25822" stroke="black" stroke-width="1" fill="blue" tooltip="enable"><title>(3.37222,23)</title></rect><rect x="516" y="198.724" width="6" height="1.27639" stroke="black" stroke-width="1" fill="blue" tooltip="enable"><title>(3.4119,13)</title></rect><rect x="522" y="197.349" width="6" height="2.65096" stroke="black" stroke-width="1" fill="blue" tooltip="enable"><title>(3.45157,27)</title></rect><rect x="528" y="198.92" width="6" height="1.08002" stroke="black" stroke-width="1" fill="blue" tooltip="enable"><title>(3.49124,11)</title></rect><rect x="534" y="198.724" width="6" height="1.27639" stroke="black" stroke-width="1" fill="blue" tooltip="enable"><title>(3.53092,13)</title></rect><rect x="540" y="198.233" width="6" height="1.7673" stroke="black" stroke-width="1" fill="blue" tooltip="enable"><title>(3.57059,18)</title></rect><rect x="546" y="199.509" width="6" height="0.490918" stroke="black" stroke-width="1" fill="blue" tooltip="enable"><title>(3.61026,5)</title></rect><rect x="552" y="199.018" width="6" height="0.981836" stroke="black" stroke-width="1" fill="blue" tooltip="enable"><title>(3.64994,10)</title></rect><rect x="558" y="199.411" width="6" height="0.589102" stroke="black" stroke-width="1" fill="blue" tooltip="enable"><title>(3.68961,6)</title></rect><rect x="564" y="199.509" width="6" height="0.490918" stroke="black" stroke-width="1" fill="blue" tooltip="enable"><title>(3.72928,5)</title></rect><rect x="570" y="199.313" width="6" height="0.687285" stroke="black" stroke-width="1" fill="blue" tooltip="enable"><title>(3.76896,7)</title></rect><rect x="576" y="199.607" width="6" height="0.392734" stroke="black" stroke-width="1" fill="blue" tooltip="enable"><title>(3.80863,4)</title></rect><rect x="582" y="199.411" width="6" height="0.589102" stroke="black" stroke-width="1" fill="blue" tooltip="enable"><title>(3.8483,6)</title></rect><rect x="588" y="200" width="6" height="0" stroke="black" stroke-width="1" fill="blue" tooltip="enable"><title>(3.88798,0)</title></rect><rect x="594" y="199.804" width="6" height="0.196367" stroke="black" stroke-width="1" fill="blue" tooltip="enable"><title>(3.92765,2)</title></rect><text x="30" y="240" font-size="20" fill="black">0</text>
<text x="600" y="240" font-size="20" fill="black">3.96732</text>
<polyline points="0,220,600,220" stroke="black" stroke-width="1" fill="none"/>
<text x="720" y="20" font-size="20" fill="black">2037</text>
<text x="720" y="200" font-size="20" fill="black">0</text>
<polyline points="660,0,660,200" stroke="black" stroke-width="1" fill="none"/>
</svg>